<?xml version="1.0" encoding="iso-8859-1"?>
<!-- Uploaded to: SVG Repo, www.svgrepo.com, Generator: SVG Repo Mixer Tools -->
<svg height="800px" width="800px" version="1.1" id="Layer_1" xmlns="http://www.w3.org/2000/svg" xmlns:xlink="http://www.w3.org/1999/xlink" 
	 viewBox="0 0 512 512" xml:space="preserve">
<path style="fill:#FF9F19;" d="M256,512C114.837,512,0,397.163,0,256S114.837,0,256,0s256,114.837,256,256S397.163,512,256,512z"/>
<path style="fill:#F28618;" d="M512,256C512,114.837,397.163,0,256,0v512C397.163,512,512,397.163,512,256z"/>
<path style="fill:#FFE14D;" d="M256,478.609c-122.75,0-222.609-99.864-222.609-222.609S133.25,33.391,256,33.391
	S478.609,133.256,478.609,256S378.75,478.609,256,478.609z"/>
<path style="fill:#FFCC33;" d="M478.609,256c0-122.744-99.859-222.609-222.609-222.609v445.217
	C378.75,478.609,478.609,378.744,478.609,256z"/>
<path style="fill:#E6563A;" d="M343.018,206.625c-9.683-11.13-52.335-46.447-66.104-86.127c-1.803-5.209-6.066-9.194-11.386-10.641
	c-3.161-0.846-6.478-0.746-9.528,0.234c-2.048,0.657-3.985,1.714-5.677,3.15c-25.99,22.105-32.156,59.437-18.343,110.982v0.011
	c-17.152-2.17-25.066-9.539-31.688-19.946c-2.616-4.118-6.912-6.879-11.743-7.569c-4.819-0.668-9.717,0.779-13.379,4.007
	c-8.047,7.09-15.071,16.351-20.87,27.526C110.447,312.587,176.095,395.13,256,395.13
	C347.726,395.13,413.729,287.822,343.018,206.625z"/>
<path style="fill:#D9472B;" d="M256,395.13V110.091c3.05-0.979,6.367-1.08,9.528-0.234c5.32,1.447,9.583,5.432,11.386,10.641
	c13.768,39.68,56.42,74.997,66.104,86.127C413.729,287.822,347.726,395.13,256,395.13z"/>
</svg>